<svg xmlns="http://www.w3.org/2000/svg" viewBox="0 0 135.81 100.5"><defs><style>.cls-1{fill:#fff;}.cls-2{fill:#e5e5e5;}.cls-3{fill:#ff605b;}.cls-4{fill:#ffbc37;}.cls-5{fill:#00cb4b;}.cls-6{fill:#34495e;}</style></defs><title>Asset 2</title><g id="Layer_2" data-name="Layer 2"><g id="Layer_1-2" data-name="Layer 1"><rect class="cls-1" width="135.81" height="100.5" rx="2.91" ry="2.91"/><path class="cls-2" d="M2.91,0h130a2.91,2.91,0,0,1,2.91,2.91V18.7a0,0,0,0,1,0,0H0a0,0,0,0,1,0,0V2.91A2.91,2.91,0,0,1,2.91,0Z"/><circle class="cls-3" cx="12.47" cy="9.75" r="7.04"/><circle class="cls-4" cx="31.24" cy="9.75" r="7.04"/><circle class="cls-5" cx="50" cy="9.75" r="7.04"/><path class="cls-6" d="M114.38,36.45l.22,48.73-45.78.2a55.55,55.55,0,0,1,42.68-9.33l-.18-39.59Z"/><path class="cls-6" d="M29.22,27.41V73.09a45.43,45.43,0,0,1,39.59,9.14,45.43,45.43,0,0,1,39.59-9.14V27.41A63.33,63.33,0,0,0,68.81,33.5a63.33,63.33,0,0,0-39.59-6.09Z"/><path class="cls-1" d="M32.26,30.45V70a45.84,45.84,0,0,1,33.5,6.09V36.54a45.84,45.84,0,0,0-33.5-6.09Z"/><path class="cls-1" d="M105.35,30.47l0,39.59a45.84,45.84,0,0,0-33.51,6.06l0-39.59a45.84,45.84,0,0,1,33.51-6.06Z"/><path class="cls-6" d="M23.13,36.54V85.27H68.81a55.35,55.35,0,0,0-42.64-9.14V36.54Z"/></g></g></svg>