<svg xmlns="http://www.w3.org/2000/svg" viewBox="0 0 191.74 76.85"><defs><style>.cls-1,.cls-7{fill:#fff;}.cls-1{stroke:#e5e5e5;stroke-miterlimit:10;}.cls-2{fill:#e5e5e5;}.cls-3{fill:#ff605b;}.cls-4{fill:#ffbc37;}.cls-5{fill:#00cb4b;}.cls-6,.cls-8{fill:#34495e;}.cls-8{font-size:32.3px;font-family:MyriadPro-Regular, Myriad Pro;}.cls-9{letter-spacing:-0.02em;}.cls-10{letter-spacing:0em;}.cls-11{letter-spacing:0.02em;}.cls-12{letter-spacing:-0.01em;}</style></defs><title>Asset 2</title><g id="Layer_2" data-name="Layer 2"><g id="Layer_1-2" data-name="Layer 1"><rect class="cls-1" x="0.5" y="0.5" width="102.49" height="75.85" rx="2.91" ry="2.91"/><path class="cls-2" d="M3.41.5h96.68A2.91,2.91,0,0,1,103,3.41v11.2a0,0,0,0,1,0,0H.5a0,0,0,0,1,0,0V3.41A2.91,2.91,0,0,1,3.41.5Z"/><circle class="cls-3" cx="9.91" cy="7.86" r="5.31"/><circle class="cls-4" cx="24.07" cy="7.86" r="5.31"/><circle class="cls-5" cx="38.24" cy="7.86" r="5.31"/><path class="cls-6" d="M86.82,28,87,64.78l-34.55.15a41.93,41.93,0,0,1,32.21-7L84.52,28Z"/><path class="cls-6" d="M22.55,21.19V55.66a34.28,34.28,0,0,1,29.88,6.9,34.28,34.28,0,0,1,29.88-6.9V21.19a47.8,47.8,0,0,0-29.88,4.6,47.8,47.8,0,0,0-29.88-4.6Z"/><path class="cls-7" d="M24.85,23.48V53.36A34.59,34.59,0,0,1,50.13,58V28.08a34.59,34.59,0,0,0-25.28-4.6Z"/><path class="cls-7" d="M80,23.5l0,29.88a34.59,34.59,0,0,0-25.29,4.57l0-29.88A34.59,34.59,0,0,1,80,23.5Z"/><path class="cls-6" d="M18,28.08V64.85H52.43A41.77,41.77,0,0,0,20.25,58V28.08Z"/><text class="cls-8" transform="translate(107.18 32.43)"><tspan class="cls-9">P</tspan><tspan class="cls-10" x="16.38" y="0">o</tspan><tspan class="cls-11" x="34.11" y="0">r</tspan><tspan x="45.44" y="0">t</tspan><tspan class="cls-12"><tspan x="0" y="31.4">L</tspan><tspan class="cls-10" x="14.79" y="31.4">ogue</tspan></tspan></text></g></g></svg>